<?xml version="1.0" standalone="no"?>
<!DOCTYPE svg PUBLIC "-//W3C//DTD SVG 20010904//EN"
 "http://www.w3.org/TR/2001/REC-SVG-20010904/DTD/svg10.dtd">
<svg version="1.0" xmlns="http://www.w3.org/2000/svg"
 width="2875.000000pt" height="2875.000000pt" viewBox="0 0 2875.000000 2875.000000"
 preserveAspectRatio="xMidYMid meet">
<metadata>
Created by potrace 1.14, written by Peter Selinger 2001-2017
</metadata>
<g transform="translate(0.000000,2875.000000) scale(0.100000,-0.100000)"
fill="#000000" stroke="none">
<path d="M15088 25335 c-2 -2 -82 -6 -178 -10 -96 -4 -193 -8 -215 -10 -123
-8 -224 -16 -255 -20 -19 -2 -64 -7 -100 -10 -36 -4 -76 -8 -90 -10 -14 -2
-54 -7 -90 -10 -36 -4 -72 -9 -81 -10 -9 -2 -40 -6 -70 -10 -30 -3 -65 -8 -79
-10 -14 -2 -45 -7 -70 -10 -44 -6 -124 -19 -185 -30 -16 -3 -46 -8 -65 -10
-19 -3 -55 -10 -80 -15 -25 -5 -72 -14 -105 -20 -83 -15 -95 -18 -225 -46 -63
-14 -122 -27 -130 -29 -437 -94 -1121 -314 -1615 -520 -279 -116 -754 -343
-945 -452 -19 -11 -62 -35 -95 -53 -265 -147 -539 -317 -795 -493 -208 -144
-283 -198 -455 -331 -126 -97 -383 -305 -416 -336 -8 -8 -42 -37 -74 -65 -32
-27 -70 -61 -85 -75 -16 -14 -70 -63 -121 -110 -104 -94 -470 -458 -564 -561
-326 -356 -581 -668 -835 -1024 -91 -128 -291 -428 -344 -515 -15 -25 -51 -85
-81 -133 -30 -48 -55 -91 -55 -94 0 -4 -6 -14 -14 -22 -8 -9 -26 -38 -40 -66
-15 -27 -31 -57 -37 -65 -35 -56 -149 -273 -255 -485 -69 -137 -128 -253 -132
-257 -5 -5 -656 -8 -1447 -8 -992 -1 -1456 -4 -1490 -12 -153 -33 -284 -140
-346 -284 l-34 -79 -3 -1048 c-1 -767 1 -1060 9 -1095 44 -179 196 -330 368
-365 42 -9 329 -12 1080 -12 l1023 0 -7 -55 c-4 -30 -9 -71 -11 -90 -2 -19 -6
-48 -8 -65 -3 -16 -7 -59 -11 -95 -3 -36 -8 -81 -10 -100 -4 -32 -11 -122 -21
-255 -26 -363 -26 -1163 0 -1425 2 -19 7 -78 10 -130 4 -52 9 -108 11 -125 3
-16 7 -59 10 -95 3 -36 7 -78 10 -95 2 -16 7 -55 10 -85 7 -70 11 -102 30
-230 31 -219 78 -479 130 -720 32 -149 114 -480 135 -545 6 -16 26 -86 46
-155 57 -204 237 -731 284 -835 5 -11 30 -72 56 -135 45 -112 72 -175 99 -235
8 -16 24 -52 36 -80 87 -199 252 -531 367 -737 18 -32 46 -84 64 -115 33 -62
36 -66 113 -194 28 -46 55 -91 60 -101 42 -73 210 -330 319 -488 74 -106 333
-459 346 -470 3 -3 39 -48 80 -100 92 -117 281 -338 414 -485 116 -129 551
-564 681 -682 501 -453 1082 -885 1621 -1204 77 -45 156 -92 176 -105 21 -13
40 -24 42 -24 3 0 27 -13 53 -28 366 -216 1057 -531 1518 -692 66 -23 129 -45
140 -50 118 -51 813 -250 1028 -294 217 -46 413 -86 435 -89 109 -19 291 -49
312 -52 14 -2 45 -6 70 -10 81 -12 95 -14 135 -19 22 -3 63 -8 90 -11 28 -3
66 -8 85 -10 19 -3 67 -7 105 -10 39 -4 77 -8 85 -10 8 -2 60 -7 115 -10 55
-3 114 -8 130 -10 154 -20 1017 -28 1265 -11 69 4 148 9 175 11 68 4 211 15
260 21 22 2 65 6 95 9 30 3 71 8 90 10 19 2 58 7 85 10 99 12 313 42 357 51
15 3 40 7 57 9 16 2 56 9 88 14 32 6 72 13 88 16 374 65 926 202 1255 312 25
8 52 16 60 18 21 4 370 128 464 164 44 17 81 30 82 28 2 -1 481 -480 1066
-1064 821 -820 1075 -1068 1118 -1091 149 -82 324 -84 474 -5 38 20 234 210
782 756 640 638 735 737 767 796 85 156 81 334 -9 489 -17 29 -327 347 -806
826 -428 428 -778 782 -778 785 0 4 42 41 92 82 99 79 98 78 228 189 422 361
902 848 1229 1250 33 41 67 82 74 90 7 8 29 35 48 60 19 25 37 47 40 50 6 5
260 345 317 425 371 517 776 1241 1037 1855 31 74 63 149 70 165 49 116 143
368 221 596 50 148 65 195 135 434 34 113 113 417 135 515 23 104 75 353 78
375 3 18 31 172 40 220 2 11 7 43 11 70 5 28 9 52 10 55 0 3 5 32 9 65 4 32 9
67 11 76 2 9 6 40 10 70 3 30 8 65 10 79 2 14 7 50 10 80 4 30 8 66 10 80 2
14 7 61 10 105 4 44 8 91 10 105 2 14 7 66 10 115 3 50 8 115 11 145 24 312
25 1008 0 1325 -2 28 -7 95 -11 150 -3 55 -8 111 -10 125 -2 14 -6 61 -10 104
-4 43 -8 86 -10 95 -1 9 -6 50 -10 91 -4 41 -8 77 -10 80 -2 3 -6 33 -10 67
-3 34 -8 72 -10 84 -3 12 -7 45 -10 72 -3 28 -8 53 -10 56 -1 3 -6 29 -9 57
-3 28 -8 57 -10 65 -3 8 -8 32 -11 54 -5 38 -21 128 -29 170 -24 116 -80 378
-96 445 -27 113 -26 109 -40 160 -7 25 -14 53 -16 64 -26 137 -221 748 -320
1006 -44 112 -145 364 -159 395 -7 17 -22 50 -33 75 -83 191 -274 587 -348
720 -65 117 -96 174 -129 235 -29 52 -80 139 -200 339 -59 97 -369 558 -436
646 -169 225 -424 549 -453 575 -6 6 -36 39 -66 75 -84 99 -100 117 -170 194
-261 285 -546 566 -825 812 -143 126 -431 359 -605 490 -663 497 -1395 921
-2110 1221 -85 35 -173 73 -195 83 -22 10 -60 25 -85 33 -25 9 -90 33 -145 55
-227 91 -871 293 -1070 337 -5 1 -21 5 -35 8 -109 29 -450 104 -555 123 -11 1
-33 6 -50 9 -16 3 -57 10 -90 16 -33 5 -71 12 -85 14 -86 16 -141 25 -180 29
-25 4 -54 8 -65 10 -11 2 -45 7 -76 10 -31 4 -65 8 -75 10 -11 2 -46 7 -79 10
-33 4 -80 9 -105 12 -95 10 -127 13 -190 19 -193 16 -310 25 -435 31 -106 5
-783 13 -787 9z"/>
</g>
</svg>
